<svg width="332" height="297" viewBox="0 0 332 297" fill="none" xmlns="http://www.w3.org/2000/svg">
<path d="M0 55.7012C0 47.0719 5.52564 39.4193 13.727 36.7357C50.0418 24.8528 144.881 -5.88837 130.23 2.00056C122.537 6.14321 121.398 15.5805 122.626 25.0492C124.345 38.2998 140.287 41.7659 150.316 32.937L157.106 26.9599C164.89 20.1076 176.62 20.3414 184.124 27.4985L189.435 32.5634C198.974 41.6601 214.851 38.9754 216.611 25.9128C217.843 16.7678 216.537 7.33633 208.368 2.00056C192.583 -8.31018 283.876 23.9718 318.819 36.4956C326.74 39.3344 332 46.8456 332 55.2595V243.999C332 253.68 325.067 261.971 315.539 263.684L210.032 282.651C208.925 282.85 207.836 283.142 206.778 283.525L177.392 294.136C173.163 295.663 168.541 295.721 164.275 294.299L131.682 283.434C130.715 283.112 129.726 282.864 128.722 282.693L16.6353 263.563C7.02688 261.924 0 253.596 0 243.849V55.7012Z" fill="#251D1A"/>
<rect x="13.1965" y="55.829" width="304.912" height="190.31" rx="20" fill="#914E35"/>
</svg>
