<svg width="1440" height="1730" viewBox="0 0 1440 1730" fill="none" xmlns="http://www.w3.org/2000/svg">
<path d="M1660.36 394.688C1449.55 1511.23 277.548 1326.98 37.8124 1290.07C-6.69739 1283.21 -122.472 1259.36 -138.53 1248.34C-108.151 1298.39 -25.642 1297.16 -25.642 1710.52C-25.642 2549.66 1591.41 1902.31 1591.41 1369.53C1591.41 836.764 1871.17 -721.855 1660.36 394.688Z" fill="#002C8F"/>
<path d="M37.8124 1290.07C277.548 1326.98 1449.55 1511.23 1660.36 394.688C1871.17 -721.855 1591.41 836.764 1591.41 1369.53C1591.41 1902.31 -25.642 2549.66 -25.642 1710.52C-25.642 1297.16 -108.151 1298.39 -138.53 1248.34M37.8124 1290.07C-6.69739 1283.21 -122.472 1259.36 -138.53 1248.34M37.8124 1290.07C-83.8313 1271.34 -169.822 1196.78 -138.53 1248.34" stroke="black"/>
<path d="M0 1417.56C0 1196.58 521.462 1605.4 620.954 1341.6C720.447 1077.8 1284.41 1754.56 1439.89 1235.94C1595.38 717.317 1439.89 1642 1439.89 1642H0C0 1642 0 1638.55 0 1417.56Z" fill="#A40023"/>
<path d="M0.5 1729.5V1606.05C0.819898 1606.09 1.27743 1606.13 1.86861 1606.19C3.13535 1606.32 5.01569 1606.51 7.47042 1606.76C12.3799 1607.25 19.5868 1607.96 28.7775 1608.84C47.1588 1610.6 73.4749 1613.03 105.215 1615.74C168.695 1621.15 253.873 1627.64 340.662 1631.97C427.448 1636.3 515.857 1638.47 585.796 1635.22C620.763 1633.6 651.131 1630.62 674.376 1625.88C685.998 1623.51 695.855 1620.69 703.623 1617.37C711.382 1614.06 717.105 1610.23 720.401 1605.8C723.541 1601.58 729.072 1597.91 736.762 1594.77C744.443 1591.64 754.227 1589.06 765.813 1586.98C788.982 1582.82 819.289 1580.68 854.236 1580.11C924.124 1578.97 1012.49 1584.11 1099.27 1591.94C1186.04 1599.78 1271.2 1610.31 1334.67 1619.93C1366.4 1624.74 1392.71 1629.33 1411.07 1633.23C1420.26 1635.19 1427.44 1636.97 1432.33 1638.52C1434.77 1639.3 1436.62 1640.02 1437.85 1640.66C1438.47 1640.98 1438.9 1641.27 1439.18 1641.52C1439.46 1641.79 1439.5 1641.94 1439.5 1642V1729.5H0.5Z" fill="#23211A" stroke="black"/>
</svg>
