<svg width="478" height="428" viewBox="0 0 478 428" fill="none" xmlns="http://www.w3.org/2000/svg">
<path d="M0 74.458C0 65.8287 5.51983 58.1782 13.7197 55.4898C60.4705 40.1623 209.467 -8.32843 187.5 3.50002C173.247 11.1747 174.621 31.4711 178.772 48.2445C181.981 61.2148 197.557 64.6461 207.586 55.8172L232.244 34.11C240.028 27.2576 251.758 27.4914 259.263 34.6486L281.067 55.4436C290.605 64.5403 306.068 61.91 309.535 49.1935C313.898 33.1895 315.194 13.4242 300 3.50002C276.332 -11.9592 419.855 39.0847 464.835 55.2504C472.753 58.0962 478 65.6023 478 74.0162V359.275C478 368.956 471.067 377.246 461.539 378.959L301.664 407.701C300.557 407.9 299.468 408.192 298.41 408.574L252.531 425.142C248.301 426.669 243.679 426.726 239.413 425.304L188.952 408.484C187.985 408.162 186.996 407.914 185.992 407.743L16.6353 378.839C7.02689 377.199 0 368.871 0 359.124V74.458Z" fill="#521600"/>
<rect x="19" y="81" width="439" height="274" rx="20" fill="#914E35"/>
</svg>
