<svg width="1440" height="833" viewBox="0 0 1440 833" fill="none" xmlns="http://www.w3.org/2000/svg">
<path d="M1207 -568.5L802 448H-163.5L-113 -294.5L1207 -568.5Z" fill="#A40023"/>
<path d="M-113 -294.5C-113 188.3 840 -367.333 1207 -568.5M-113 -294.5L-163.5 448H802L1207 -568.5M-113 -294.5L1207 -568.5" stroke="black"/>
<path d="M1351.58 -478.27C967.051 188.941 103.584 593.23 -66.9193 -3.30249C-115.411 -8.87073 -145.896 -19.3152 -163.39 -28.2698C-130.294 12.3964 -66.9193 141.208 -66.9193 477.061C-66.9193 1158.87 896.5 749.543 1542 159.043C2187.5 -431.457 1736.12 -1145.48 1351.58 -478.27Z" fill="#002C8F"/>
<path d="M-66.9193 -3.30249C103.584 593.23 967.051 188.941 1351.58 -478.27C1736.12 -1145.48 2187.5 -431.457 1542 159.043C896.5 749.543 -66.9193 1158.87 -66.9193 477.061C-66.9193 141.208 -130.294 12.3963 -163.39 -28.2698M-66.9193 -3.30249C-115.411 -8.87075 -145.896 -19.3152 -163.39 -28.2698M-66.9193 -3.30249C-199.445 -18.5204 -197.481 -70.1591 -163.39 -28.2698" stroke="black"/>
</svg>
