<svg width="1440" height="695" viewBox="0 0 1440 695" fill="none" xmlns="http://www.w3.org/2000/svg">
<path d="M1482.01 130.246C1268.45 496.482 79.1802 414.448 -163.682 402.34C-208.772 400.092 -324.07 413.866 -340.337 410.251C-309.563 426.668 -225.978 426.266 -225.978 561.85C-225.978 837.097 1540.82 624.052 1540.82 449.299C1540.82 274.545 1695.57 -235.99 1482.01 130.246Z" fill="#A40023"/>
<path d="M-163.682 402.34C79.1802 414.448 1268.45 496.482 1482.01 130.246C1695.57 -235.99 1540.82 274.545 1540.82 449.299C1540.82 624.052 -225.978 837.097 -225.978 561.85C-225.978 426.266 -309.563 426.668 -340.337 410.251M-163.682 402.34C-208.772 400.092 -324.07 413.866 -340.337 410.251M-163.682 402.34C-286.911 396.197 -372.037 393.34 -340.337 410.251" stroke="black"/>
</svg>
